<svg xmlns="http://www.w3.org/2000/svg" xmlns:xlink="http://www.w3.org/1999/xlink" style="vertical-align:-1.755ex" width="9.954ex" height="5.384ex" viewBox="0 -1562.8 4285.9 2318.2"><defs><path id="a" stroke-width="1" d="M666 247q-2-3-14-121T638 4V0H95Q59 0 57 5v1q-3 6 0 11l16 19 48 54q32 36 61 69l123 140L56 644l-1 14q0 19 5 23 3 2 291 2h287v-4q2-5 14-115t14-117v-4h-40v4q-8 58-22 96t-45 62q-30 21-81 26t-145 6H189l104-143q21-29 52-72 55-76 55-82 0-2-1-3L154 57q253 0 274 1 48 2 80 10t43 15 24 20q20 22 33 59t16 63l2 26h40v-4z"/><path id="b" stroke-width="1" d="M139-249h-2q-12 0-18 14v486l1 486q10 13 19 13 13 0 20-15v-970q-8-14-18-14h-2z"/><path id="c" stroke-width="1" d="M52 289q7 42 54 97t116 56q35 0 64-18t43-45q42 63 101 63 37 0 64-22t28-59q0-29-14-47t-27-22-23-4q-19 0-31 11t-12 29q0 46 50 63-11 13-40 13-13 0-19-2-38-16-56-66-60-221-60-258 0-28 16-40t35-12q37 0 73 33t49 81q3 10 6 11t16 2h4q15 0 15-8 0-1-2-11-16-57-62-101T333-11q-70 0-106 63-41-62-94-62h-6q-49 0-70 26T35 71q0 32 19 52t45 20q43 0 43-42 0-20-12-35t-23-20-13-5l-3-1q0-1 6-4t16-7 19-3q36 0 62 45 9 16 23 68t28 108 16 66q5 27 5 39 0 28-15 40t-34 12q-40 0-75-32t-49-82q-2-9-5-10t-16-2H58q-6 6-6 11z"/><path id="d" stroke-width="1" d="M84 237v13l14 20h581q15-8 15-20t-15-20H98q-14 7-14 20z"/><path id="e" stroke-width="1" d="M69 544v46h361v-46H69z"/><path id="f" stroke-width="1" d="M21 287q1 6 3 16t12 38 20 47 33 37 46 17q36 0 60-18t30-34 6-21q0-2 1-2l11 11q61 64 139 64 54 0 87-27t34-79-38-157-38-127q0-26 17-26 6 0 9 1 29 5 52 38t35 80q2 8 20 8 20 0 20-8 0-1-4-15-8-29-22-57t-46-56-69-27q-47 0-68 27t-21 56q0 19 36 120t37 152q0 59-44 59h-5q-86 0-145-101l-7-12-33-134Q156 26 151 16q-13-27-43-27-13 0-21 6T76 7t-2 10q0 13 38 163t40 163q1 5 1 23 0 39-24 39-38 0-63-100-6-20-6-21-2-6-19-6H27q-6 6-6 9z"/><path id="g" stroke-width="1" d="M78 60q0 24 17 42t43 18q24 0 42-16t19-43q0-25-17-43T139 0 96 17 78 60z"/></defs><g fill="currentColor" stroke="currentColor" stroke-width="0" transform="scale(1 -1)"><g transform="translate(120)"><path stroke="none" d="M0 220h3767v60H0z"/><g transform="translate(60 724)"><use xlink:href="#a"/><use x="722" xlink:href="#b"/><use x="1001" xlink:href="#c"/><use x="1795" xlink:href="#d"/><g transform="translate(2796)"><use xlink:href="#c"/><use x="63" y="-20" xlink:href="#e"/></g><use x="3368" xlink:href="#b"/></g><use x="1583" y="-686" xlink:href="#f"/></g><use x="4007" xlink:href="#g"/></g></svg>